<svg width="1835" height="912" viewBox="0 0 1835 912" fill="none" xmlns="http://www.w3.org/2000/svg">
<g opacity="0.35" filter="url(#filter0_i_169_139)">
<path d="M553.3 337.8V178.9H526C520.633 178.9 517.95 182.517 517.95 189.75V206.2L482.25 203.75V144.25H665.3V203.75L629.6 206.2V189.75C629.6 185.783 629.017 182.983 627.85 181.35C626.683 179.717 623.883 178.9 619.45 178.9H595.65V346.2L623.3 347.25V377H524.6V348.65L543.15 347.6C549.917 346.9 553.3 343.633 553.3 337.8ZM703.357 336.05V175.05L683.407 174V144.25H767.407V172.6L755.857 173.65C749.09 174.35 745.707 178.083 745.707 184.85V261.85L817.107 175.05L797.507 174V144.25H879.407V172.6L867.857 173.65C863.424 174.117 858.757 177.383 853.857 183.45L804.157 244.35L866.107 346.2L884.657 347.25V377H795.057V348.65L805.907 347.6C810.574 347.133 812.907 345.267 812.907 342C812.907 340.6 812.324 338.733 811.157 336.4L776.507 276.55L745.707 313.65V346.2L765.657 347.25V377H681.657V348.65L693.207 347.6C696.707 347.133 699.274 346.2 700.907 344.8C702.54 343.167 703.357 340.25 703.357 336.05ZM968.75 292.3V260.1H1060.45V292.3H968.75ZM1153.01 377V348.65L1164.56 347.6C1171.33 346.9 1174.71 343.633 1174.71 337.8V175.05L1154.76 174V144.25H1250.66C1284.96 144.25 1311.68 153.35 1330.81 171.55C1350.18 189.75 1359.86 216.7 1359.86 252.4C1359.86 274.567 1356.94 293.933 1351.11 310.5C1345.28 326.833 1337.34 339.667 1327.31 349C1307.24 367.667 1282.28 377 1252.41 377H1153.01ZM1217.41 178.2V343.4H1253.11C1273.18 343.4 1288.81 336.167 1300.01 321.7C1311.21 307.233 1316.81 286.233 1316.81 258.7C1316.81 205.033 1294.06 178.2 1248.56 178.2H1217.41ZM1444.23 185.2V301.4C1444.23 317.733 1448.08 329.283 1455.78 336.05C1463.71 342.583 1474.91 345.85 1489.38 345.85C1504.08 345.85 1515.39 342.233 1523.33 335C1531.49 327.767 1535.58 317.15 1535.58 303.15V175.05L1515.28 174V144.25H1598.23V172.6L1586.68 173.65C1579.91 174.35 1576.53 177.85 1576.53 184.15V309.1C1576.53 331.733 1568.59 349.467 1552.73 362.3C1536.86 375.133 1514.93 381.55 1486.93 381.55C1458.93 381.55 1437.69 375.367 1423.23 363C1408.99 350.4 1401.88 330.567 1401.88 303.5V175.05L1381.58 174V144.25H1466.27V172.6L1454.73 173.65C1450.99 174.117 1448.31 175.167 1446.68 176.8C1445.04 178.2 1444.23 181 1444.23 185.2ZM1721.92 140.05C1749.69 140.05 1772.9 149.85 1791.57 169.45C1810.24 189.05 1819.57 219.033 1819.57 259.4C1819.57 299.533 1810.24 329.983 1791.57 350.75C1773.14 371.283 1748.05 381.55 1716.32 381.55C1684.82 381.55 1660.09 371.283 1642.12 350.75C1624.15 330.217 1615.17 300.35 1615.17 261.15C1615.17 239.683 1618.32 220.9 1624.62 204.8C1630.92 188.467 1639.2 175.867 1649.47 167C1670.24 149.033 1694.39 140.05 1721.92 140.05ZM1658.92 259.4C1658.92 317.267 1678.99 346.2 1719.12 346.2C1740.59 346.2 1755.64 337.333 1764.27 319.6C1772.2 303.967 1776.17 284.833 1776.17 262.2C1776.17 241.9 1772.67 223.233 1765.67 206.2C1761.7 196.867 1755.64 189.517 1747.47 184.15C1739.54 178.783 1729.15 176.1 1716.32 176.1C1703.49 176.1 1692.4 180.3 1683.07 188.7C1673.97 197.1 1667.67 207.25 1664.17 219.15C1660.67 231.05 1658.92 244.467 1658.92 259.4ZM488.2 852V823.65L499.75 822.6C506.517 821.9 509.9 818.633 509.9 812.8V650.05L489.95 649V619.25H590.05C616.183 619.25 636.483 625.433 650.95 637.8C665.65 649.933 673 668.25 673 692.75C673 717.25 664.717 736.383 648.15 750.15C631.583 763.683 609.65 770.45 582.35 770.45H552.6V821.2L586.2 822.25V852H488.2ZM552.6 736.5H577.8C611.867 736.5 628.9 722.617 628.9 694.85C628.9 678.05 624.467 666.967 615.6 661.6C606.967 656 593.083 653.2 573.95 653.2H552.6V736.5ZM679.218 812.8L735.568 649.7L713.518 647.6V619.25H793.668L865.068 821.2H865.418L885.368 822.25V852H795.068V823.65L808.368 822.6C812.335 822.133 815.018 821.2 816.418 819.8C817.818 818.4 817.935 815.833 816.768 812.1L809.418 790.4H727.518L717.018 821.2L738.018 822.25V852H657.168V823.65L668.718 822.6C673.618 822.133 677.118 818.867 679.218 812.8ZM768.468 658.45L735.918 758.2H801.018L769.518 658.45H768.468ZM938.847 812.8V653.9H911.547C906.18 653.9 903.497 657.517 903.497 664.75V681.2L867.797 678.75V619.25H1050.85V678.75L1015.15 681.2V664.75C1015.15 660.783 1014.56 657.983 1013.4 656.35C1012.23 654.717 1009.43 653.9 1005 653.9H981.197V821.2L1008.85 822.25V852H910.147V823.65L928.697 822.6C935.464 821.9 938.847 818.633 938.847 812.8Z" fill="#A1262E"/>
</g>
<path opacity="0.2" fill-rule="evenodd" clip-rule="evenodd" d="M6.17912 690.246L-65.1851 760.831C-104.913 800.126 -137.285 833.599 -137.285 835.782C-137.285 837.966 -71.807 838.694 7.64969 837.238L152.587 835.056L6.17912 690.246ZM5.44295 748.461L-44.5847 799.398H4.70679C31.9291 799.398 54 798.67 54 797.216C54 795.76 42.9646 784.846 29.7224 771.748L5.44295 748.461Z" fill="#A1262E"/>
<path opacity="0.2" d="M6.17908 399.173L-74.75 479.219C-152 555.624 -165.242 565.085 -176.278 554.17C-190.257 541.072 -174.071 518.513 -87.256 433.374L6.17908 340.958L104.764 438.469C190.108 522.879 202.614 538.16 194.522 547.621C188.636 554.17 180.543 559.263 176.128 559.263C171.715 559.263 131.25 522.879 87.1081 479.219L6.17908 399.173Z" fill="#A1262E"/>
<path opacity="0.2" fill-rule="evenodd" clip-rule="evenodd" d="M-120.364 631.303C-111.535 626.937 -79.1634 599.286 -49 569.45L6.17911 515.602L57.6791 567.268C116.535 626.21 137.872 639.308 175.394 639.308C240.872 639.308 290.165 581.094 278.394 517.058C273.978 494.499 251.171 468.303 140.079 356.967L6.17911 224.529L-117.421 346.053C-185.842 413.727 -246.171 477.034 -252.057 487.95C-265.299 513.42 -265.299 561.447 -251.321 589.099C-228.514 631.303 -163.035 652.406 -120.364 631.303ZM-221.892 522.879C-228.514 551.986 -213.799 580.366 -188.049 591.281C-175.542 596.374 -157.886 599.286 -149.057 597.83C-139.492 595.648 -101.234 563.629 -62.9783 525.79L5.44293 457.387L76.8071 526.518C143.758 592.009 155.529 599.286 190.108 596.374C212.179 594.192 237.929 562.173 237.929 535.977C237.929 516.33 221.742 497.409 122.421 397.717L6.91528 282.743L-105.65 393.352C-174.807 461.026 -219.685 511.235 -221.892 522.879Z" fill="#A1262E"/>
<path opacity="0.2" fill-rule="evenodd" clip-rule="evenodd" d="M-83.5786 704.8C-65.9212 696.795 -38.6989 677.148 -23.2499 661.138L4.70682 632.759L37.0788 661.866C54.7362 677.876 83.4292 697.523 100.35 705.528C137.136 721.537 212.915 723.719 248.228 709.165C313.707 682.241 363 608.746 363 537.433C363 466.119 344.606 441.379 166.565 266.007L5.44299 108.099L-160.829 273.284C-315.328 427.553 -327.835 442.105 -338.871 478.491C-353.585 527.246 -353.585 546.893 -339.606 592.736C-316.799 669.143 -246.171 719.352 -161.563 719.352C-129.927 719.352 -104.913 714.26 -83.5786 704.8ZM-207.178 674.238C-289.578 645.857 -329.306 551.986 -291.785 476.306C-282.956 458.116 -220.421 389.713 -135.079 306.029L6.91534 166.314L158.472 316.945C299.728 458.844 310.029 470.485 317.386 503.958C333.571 580.366 288.693 656.045 215.122 675.692C155.529 691.702 106.972 674.238 46.6437 613.839L6.91534 573.817L-41.6418 620.388C-103.443 679.33 -149.057 694.613 -207.178 674.238Z" fill="#A1262E"/>
<defs>
<filter id="filter0_i_169_139" x="482.25" y="140.05" width="1337.32" height="715.95" filterUnits="userSpaceOnUse" color-interpolation-filters="sRGB">
<feFlood flood-opacity="0" result="BackgroundImageFix"/>
<feBlend mode="normal" in="SourceGraphic" in2="BackgroundImageFix" result="shape"/>
<feColorMatrix in="SourceAlpha" type="matrix" values="0 0 0 0 0 0 0 0 0 0 0 0 0 0 0 0 0 0 127 0" result="hardAlpha"/>
<feOffset dy="4"/>
<feGaussianBlur stdDeviation="2"/>
<feComposite in2="hardAlpha" operator="arithmetic" k2="-1" k3="1"/>
<feColorMatrix type="matrix" values="0 0 0 0 0 0 0 0 0 0 0 0 0 0 0 0 0 0 0.3 0"/>
<feBlend mode="normal" in2="shape" result="effect1_innerShadow_169_139"/>
</filter>
</defs>
</svg>