<svg width="388" height="331" viewBox="0 0 388 331" fill="none" xmlns="http://www.w3.org/2000/svg">
<rect x="13" y="20.5015" width="362" height="308.499" rx="50" fill="#81141B"/>
<g filter="url(#filter0_d_568_696)">
<rect x="20" y="27.3352" width="348" height="279.211" rx="50" fill="#CAC1B0"/>
</g>
<path d="M53 0H335L319.69 20.0134L335 40.0267H53L68.31 20.0134L53 0Z" fill="#B5962B"/>
<path d="M329.312 4.40503L315.268 19.6746L314.957 20.0134L315.268 20.3523L329.313 35.6218H58.6875L72.7334 20.3523L73.0439 20.0134L72.7334 19.6746L58.6885 4.40503H329.312Z" stroke="#A1262E"/>
<path d="M140.451 27.2C139.398 27.2 138.591 26.9 138.031 26.3C137.485 25.7 137.211 24.8533 137.211 23.76V16.24C137.211 15.1467 137.485 14.3 138.031 13.7C138.591 13.1 139.398 12.8 140.451 12.8C141.505 12.8 142.305 13.1 142.851 13.7C143.411 14.3 143.691 15.1467 143.691 16.24V17.72H141.611V16.1C141.611 15.2333 141.245 14.8 140.511 14.8C139.778 14.8 139.411 15.2333 139.411 16.1V23.92C139.411 24.7733 139.778 25.2 140.511 25.2C141.245 25.2 141.611 24.7733 141.611 23.92V21.78H143.691V23.76C143.691 24.8533 143.411 25.7 142.851 26.3C142.305 26.9 141.505 27.2 140.451 27.2ZM148.227 27.2C147.147 27.2 146.32 26.8933 145.747 26.28C145.173 25.6667 144.887 24.8 144.887 23.68V16.32C144.887 15.2 145.173 14.3333 145.747 13.72C146.32 13.1067 147.147 12.8 148.227 12.8C149.307 12.8 150.133 13.1067 150.707 13.72C151.28 14.3333 151.567 15.2 151.567 16.32V23.68C151.567 24.8 151.28 25.6667 150.707 26.28C150.133 26.8933 149.307 27.2 148.227 27.2ZM148.227 25.2C148.987 25.2 149.367 24.74 149.367 23.82V16.18C149.367 15.26 148.987 14.8 148.227 14.8C147.467 14.8 147.087 15.26 147.087 16.18V23.82C147.087 24.74 147.467 25.2 148.227 25.2ZM153.054 13H155.814L157.954 21.38H157.994V13H159.954V27H157.694L155.054 16.78H155.014V27H153.054V13ZM164.71 27.2C163.643 27.2 162.83 26.9 162.27 26.3C161.71 25.6867 161.43 24.8133 161.43 23.68V16.32C161.43 15.1867 161.71 14.32 162.27 13.72C162.83 13.1067 163.643 12.8 164.71 12.8C165.776 12.8 166.59 13.1067 167.15 13.72C167.71 14.32 167.99 15.1867 167.99 16.32V17.52H165.91V16.18C165.91 15.26 165.53 14.8 164.77 14.8C164.01 14.8 163.63 15.26 163.63 16.18V23.84C163.63 24.7467 164.01 25.2 164.77 25.2C165.53 25.2 165.91 24.7467 165.91 23.84V21.1H164.81V19.1H167.99V23.68C167.99 24.8133 167.71 25.6867 167.15 26.3C166.59 26.9 165.776 27.2 164.71 27.2ZM169.402 13H172.662C173.795 13 174.622 13.2667 175.142 13.8C175.662 14.32 175.922 15.1267 175.922 16.22V17.08C175.922 18.5333 175.442 19.4533 174.482 19.84V19.88C175.015 20.04 175.389 20.3667 175.602 20.86C175.829 21.3533 175.942 22.0133 175.942 22.84V25.3C175.942 25.7 175.955 26.0267 175.982 26.28C176.009 26.52 176.075 26.76 176.182 27H173.942C173.862 26.7733 173.809 26.56 173.782 26.36C173.755 26.16 173.742 25.8 173.742 25.28V22.72C173.742 22.08 173.635 21.6333 173.422 21.38C173.222 21.1267 172.869 21 172.362 21H171.602V27H169.402V13ZM172.402 19C172.842 19 173.169 18.8867 173.382 18.66C173.609 18.4333 173.722 18.0533 173.722 17.52V16.44C173.722 15.9333 173.629 15.5667 173.442 15.34C173.269 15.1133 172.989 15 172.602 15H171.602V19H172.402ZM179.168 13H182.148L184.428 27H182.228L181.828 24.22V24.26H179.328L178.928 27H176.888L179.168 13ZM181.568 22.36L180.588 15.44H180.548L179.588 22.36H181.568ZM186.298 15H183.998V13H190.798V15H188.498V27H186.298V15ZM195.063 27.2C193.996 27.2 193.183 26.9 192.623 26.3C192.063 25.6867 191.783 24.8133 191.783 23.68V13H193.983V23.84C193.983 24.32 194.076 24.6667 194.263 24.88C194.463 25.0933 194.743 25.2 195.103 25.2C195.463 25.2 195.736 25.0933 195.923 24.88C196.123 24.6667 196.223 24.32 196.223 23.84V13H198.343V23.68C198.343 24.8133 198.063 25.6867 197.503 26.3C196.943 26.9 196.13 27.2 195.063 27.2ZM199.91 13H202.11V25H205.73V27H199.91V13ZM208.563 13H211.543L213.823 27H211.623L211.223 24.22V24.26H208.723L208.323 27H206.283L208.563 13ZM210.963 22.36L209.983 15.44H209.943L208.983 22.36H210.963ZM215.692 15H213.392V13H220.192V15H217.892V27H215.692V15ZM221.258 13H223.458V27H221.258V13ZM228.285 27.2C227.205 27.2 226.378 26.8933 225.805 26.28C225.232 25.6667 224.945 24.8 224.945 23.68V16.32C224.945 15.2 225.232 14.3333 225.805 13.72C226.378 13.1067 227.205 12.8 228.285 12.8C229.365 12.8 230.192 13.1067 230.765 13.72C231.338 14.3333 231.625 15.2 231.625 16.32V23.68C231.625 24.8 231.338 25.6667 230.765 26.28C230.192 26.8933 229.365 27.2 228.285 27.2ZM228.285 25.2C229.045 25.2 229.425 24.74 229.425 23.82V16.18C229.425 15.26 229.045 14.8 228.285 14.8C227.525 14.8 227.145 15.26 227.145 16.18V23.82C227.145 24.74 227.525 25.2 228.285 25.2ZM233.113 13H235.873L238.013 21.38H238.053V13H240.013V27H237.753L235.113 16.78H235.073V27H233.113V13ZM244.508 27.2C243.441 27.2 242.635 26.9 242.088 26.3C241.541 25.6867 241.268 24.8133 241.268 23.68V22.88H243.348V23.84C243.348 24.7467 243.728 25.2 244.488 25.2C244.861 25.2 245.141 25.0933 245.328 24.88C245.528 24.6533 245.628 24.2933 245.628 23.8C245.628 23.2133 245.495 22.7 245.228 22.26C244.961 21.8067 244.468 21.2667 243.748 20.64C242.841 19.84 242.208 19.12 241.848 18.48C241.488 17.8267 241.308 17.0933 241.308 16.28C241.308 15.1733 241.588 14.32 242.148 13.72C242.708 13.1067 243.521 12.8 244.588 12.8C245.641 12.8 246.435 13.1067 246.968 13.72C247.515 14.32 247.788 15.1867 247.788 16.32V16.9H245.708V16.18C245.708 15.7 245.615 15.3533 245.428 15.14C245.241 14.9133 244.968 14.8 244.608 14.8C243.875 14.8 243.508 15.2467 243.508 16.14C243.508 16.6467 243.641 17.12 243.908 17.56C244.188 18 244.688 18.5333 245.408 19.16C246.328 19.96 246.961 20.6867 247.308 21.34C247.655 21.9933 247.828 22.76 247.828 23.64C247.828 24.7867 247.541 25.6667 246.968 26.28C246.408 26.8933 245.588 27.2 244.508 27.2ZM249.27 18.84V13H251.47V18.84L251.19 23.3H249.55L249.27 18.84ZM249.31 24.88H251.43V27H249.31V24.88Z" fill="black"/>
<path d="M79.641 11.7151L80.8081 17.1117H84.5848L81.5294 20.447L82.6964 25.8437L79.641 22.5084L76.5856 25.8437L77.7527 20.447L74.6973 17.1117H78.474L79.641 11.7151Z" fill="#A1262E"/>
<path d="M309.009 11.7151L310.176 17.1117H313.953L310.898 20.447L312.065 25.8437L309.009 22.5084L305.954 25.8437L307.121 20.447L304.066 17.1117H307.842L309.009 11.7151Z" fill="#A1262E"/>
<defs>
<filter id="filter0_d_568_696" x="0" y="11.3352" width="388" height="319.211" filterUnits="userSpaceOnUse" color-interpolation-filters="sRGB">
<feFlood flood-opacity="0" result="BackgroundImageFix"/>
<feColorMatrix in="SourceAlpha" type="matrix" values="0 0 0 0 0 0 0 0 0 0 0 0 0 0 0 0 0 0 127 0" result="hardAlpha"/>
<feOffset dy="4"/>
<feGaussianBlur stdDeviation="10"/>
<feComposite in2="hardAlpha" operator="out"/>
<feColorMatrix type="matrix" values="0 0 0 0 0 0 0 0 0 0 0 0 0 0 0 0 0 0 0.25 0"/>
<feBlend mode="normal" in2="BackgroundImageFix" result="effect1_dropShadow_568_696"/>
<feBlend mode="normal" in="SourceGraphic" in2="effect1_dropShadow_568_696" result="shape"/>
</filter>
</defs>
</svg>
