<svg width="388" height="331" viewBox="0 0 388 331" fill="none" xmlns="http://www.w3.org/2000/svg">
<rect x="13" y="20.5015" width="362" height="308.499" rx="50" fill="#81141B"/>
<g filter="url(#filter0_d_568_696)">
<rect x="20" y="27.3352" width="348" height="279.211" rx="50" fill="#CAC1B0"/>
</g>
<path d="M53 0H335L319.69 20.0134L335 40.0267H53L68.31 20.0134L53 0Z" fill="#B5962B"/>
<path d="M329.312 4.40503L315.268 19.6746L314.957 20.0134L315.268 20.3523L329.313 35.6218H58.6875L72.7334 20.3523L73.0439 20.0134L72.7334 19.6746L58.6885 4.40503H329.312Z" stroke="#A1262E"/>
<path d="M170.423 13H172.543L173.523 23.76H173.563L174.603 13H177.003L178.043 23.76H178.083L179.063 13H180.963L179.543 27H176.803L175.803 17.56H175.763L174.763 27H171.843L170.423 13ZM182.076 13H185.336C186.469 13 187.296 13.2667 187.816 13.8C188.336 14.32 188.596 15.1267 188.596 16.22V17.08C188.596 18.5333 188.116 19.4533 187.156 19.84V19.88C187.689 20.04 188.063 20.3667 188.276 20.86C188.503 21.3533 188.616 22.0133 188.616 22.84V25.3C188.616 25.7 188.629 26.0267 188.656 26.28C188.683 26.52 188.749 26.76 188.856 27H186.616C186.536 26.7733 186.483 26.56 186.456 26.36C186.429 26.16 186.416 25.8 186.416 25.28V22.72C186.416 22.08 186.309 21.6333 186.096 21.38C185.896 21.1267 185.543 21 185.036 21H184.276V27H182.076V13ZM185.076 19C185.516 19 185.843 18.8867 186.056 18.66C186.283 18.4333 186.396 18.0533 186.396 17.52V16.44C186.396 15.9333 186.303 15.5667 186.116 15.34C185.943 15.1133 185.663 15 185.276 15H184.276V19H185.076ZM193.322 27.2C192.242 27.2 191.416 26.8933 190.842 26.28C190.269 25.6667 189.982 24.8 189.982 23.68V16.32C189.982 15.2 190.269 14.3333 190.842 13.72C191.416 13.1067 192.242 12.8 193.322 12.8C194.402 12.8 195.229 13.1067 195.802 13.72C196.376 14.3333 196.662 15.2 196.662 16.32V23.68C196.662 24.8 196.376 25.6667 195.802 26.28C195.229 26.8933 194.402 27.2 193.322 27.2ZM193.322 25.2C194.082 25.2 194.462 24.74 194.462 23.82V16.18C194.462 15.26 194.082 14.8 193.322 14.8C192.562 14.8 192.182 15.26 192.182 16.18V23.82C192.182 24.74 192.562 25.2 193.322 25.2ZM198.15 13H200.91L203.05 21.38H203.09V13H205.05V27H202.79L200.15 16.78H200.11V27H198.15V13ZM209.805 27.2C208.739 27.2 207.925 26.9 207.365 26.3C206.805 25.6867 206.525 24.8133 206.525 23.68V16.32C206.525 15.1867 206.805 14.32 207.365 13.72C207.925 13.1067 208.739 12.8 209.805 12.8C210.872 12.8 211.685 13.1067 212.245 13.72C212.805 14.32 213.085 15.1867 213.085 16.32V17.52H211.005V16.18C211.005 15.26 210.625 14.8 209.865 14.8C209.105 14.8 208.725 15.26 208.725 16.18V23.84C208.725 24.7467 209.105 25.2 209.865 25.2C210.625 25.2 211.005 24.7467 211.005 23.84V21.1H209.905V19.1H213.085V23.68C213.085 24.8133 212.805 25.6867 212.245 26.3C211.685 26.9 210.872 27.2 209.805 27.2ZM214.678 18.84V13H216.878V18.84L216.598 23.3H214.958L214.678 18.84ZM214.718 24.88H216.838V27H214.718V24.88Z" fill="black"/>
<path d="M79.641 11.7151L80.8081 17.1117H84.5848L81.5294 20.447L82.6964 25.8437L79.641 22.5084L76.5856 25.8437L77.7527 20.447L74.6973 17.1117H78.474L79.641 11.7151Z" fill="#A1262E"/>
<path d="M309.009 11.7151L310.176 17.1117H313.953L310.898 20.447L312.065 25.8437L309.009 22.5084L305.954 25.8437L307.121 20.447L304.066 17.1117H307.842L309.009 11.7151Z" fill="#A1262E"/>
<defs>
<filter id="filter0_d_568_696" x="0" y="11.3352" width="388" height="319.211" filterUnits="userSpaceOnUse" color-interpolation-filters="sRGB">
<feFlood flood-opacity="0" result="BackgroundImageFix"/>
<feColorMatrix in="SourceAlpha" type="matrix" values="0 0 0 0 0 0 0 0 0 0 0 0 0 0 0 0 0 0 127 0" result="hardAlpha"/>
<feOffset dy="4"/>
<feGaussianBlur stdDeviation="10"/>
<feComposite in2="hardAlpha" operator="out"/>
<feColorMatrix type="matrix" values="0 0 0 0 0 0 0 0 0 0 0 0 0 0 0 0 0 0 0.25 0"/>
<feBlend mode="normal" in2="BackgroundImageFix" result="effect1_dropShadow_568_696"/>
<feBlend mode="normal" in="SourceGraphic" in2="effect1_dropShadow_568_696" result="shape"/>
</filter>
</defs>
</svg>
