<svg width="388" height="331" viewBox="0 0 388 331" fill="none" xmlns="http://www.w3.org/2000/svg">
<rect x="13" y="20.5015" width="362" height="308.499" rx="50" fill="#81141B"/>
<g filter="url(#filter0_d_568_696)">
<rect x="20" y="27.3352" width="348" height="279.211" rx="50" fill="#CAC1B0"/>
</g>
<path d="M53 0H335L319.69 20.0134L335 40.0267H53L68.31 20.0134L53 0Z" fill="#B5962B"/>
<path d="M329.312 4.40503L315.268 19.6746L314.957 20.0134L315.268 20.3523L329.313 35.6218H58.6875L72.7334 20.3523L73.0439 20.0134L72.7334 19.6746L58.6885 4.40503H329.312Z" stroke="#A1262E"/>
<path d="M181.187 13H183.387V27H181.187V13ZM185.035 13H187.795L189.935 21.38H189.975V13H191.935V27H189.675L187.035 16.78H186.995V27H185.035V13ZM193.57 13H199.39V15H195.77V18.9H198.61V20.9H195.77V27H193.57V13ZM203.625 27.2C202.545 27.2 201.718 26.8933 201.145 26.28C200.572 25.6667 200.285 24.8 200.285 23.68V16.32C200.285 15.2 200.572 14.3333 201.145 13.72C201.718 13.1067 202.545 12.8 203.625 12.8C204.705 12.8 205.532 13.1067 206.105 13.72C206.678 14.3333 206.965 15.2 206.965 16.32V23.68C206.965 24.8 206.678 25.6667 206.105 26.28C205.532 26.8933 204.705 27.2 203.625 27.2ZM203.625 25.2C204.385 25.2 204.765 24.74 204.765 23.82V16.18C204.765 15.26 204.385 14.8 203.625 14.8C202.865 14.8 202.485 15.26 202.485 16.18V23.82C202.485 24.74 202.865 25.2 203.625 25.2Z" fill="black"/>
<path d="M79.641 11.7151L80.8081 17.1117H84.5848L81.5294 20.447L82.6964 25.8437L79.641 22.5084L76.5856 25.8437L77.7527 20.447L74.6973 17.1117H78.474L79.641 11.7151Z" fill="#A1262E"/>
<path d="M309.009 11.7151L310.176 17.1117H313.953L310.898 20.447L312.065 25.8437L309.009 22.5084L305.954 25.8437L307.121 20.447L304.066 17.1117H307.842L309.009 11.7151Z" fill="#A1262E"/>
<defs>
<filter id="filter0_d_568_696" x="0" y="11.3352" width="388" height="319.211" filterUnits="userSpaceOnUse" color-interpolation-filters="sRGB">
<feFlood flood-opacity="0" result="BackgroundImageFix"/>
<feColorMatrix in="SourceAlpha" type="matrix" values="0 0 0 0 0 0 0 0 0 0 0 0 0 0 0 0 0 0 127 0" result="hardAlpha"/>
<feOffset dy="4"/>
<feGaussianBlur stdDeviation="10"/>
<feComposite in2="hardAlpha" operator="out"/>
<feColorMatrix type="matrix" values="0 0 0 0 0 0 0 0 0 0 0 0 0 0 0 0 0 0 0.25 0"/>
<feBlend mode="normal" in2="BackgroundImageFix" result="effect1_dropShadow_568_696"/>
<feBlend mode="normal" in="SourceGraphic" in2="effect1_dropShadow_568_696" result="shape"/>
</filter>
</defs>
</svg>
