<svg width="388" height="331" viewBox="0 0 388 331" fill="none" xmlns="http://www.w3.org/2000/svg">
<rect x="13" y="20.5015" width="362" height="308.499" rx="50" fill="#81141B"/>
<g filter="url(#filter0_d_568_696)">
<rect x="20" y="27.3352" width="348" height="279.211" rx="50" fill="#CAC1B0"/>
</g>
<path d="M53 0H335L319.69 20.0134L335 40.0267H53L68.31 20.0134L53 0Z" fill="#B5962B"/>
<path d="M329.312 4.40503L315.268 19.6746L314.957 20.0134L315.268 20.3523L329.313 35.6218H58.6875L72.7334 20.3523L73.0439 20.0134L72.7334 19.6746L58.6885 4.40503H329.312Z" stroke="#A1262E"/>
<path d="M167.68 26.9864C166.613 26.9864 165.807 26.6864 165.26 26.0864C164.713 25.473 164.44 24.5997 164.44 23.4664V22.6664H166.52V23.6264C166.52 24.533 166.9 24.9864 167.66 24.9864C168.033 24.9864 168.313 24.8797 168.5 24.6664C168.7 24.4397 168.8 24.0797 168.8 23.5864C168.8 22.9997 168.667 22.4864 168.4 22.0464C168.133 21.593 167.64 21.053 166.92 20.4264C166.013 19.6264 165.38 18.9064 165.02 18.2664C164.66 17.613 164.48 16.8797 164.48 16.0664C164.48 14.9597 164.76 14.1064 165.32 13.5064C165.88 12.893 166.693 12.5864 167.76 12.5864C168.813 12.5864 169.607 12.893 170.14 13.5064C170.687 14.1064 170.96 14.973 170.96 16.1064V16.6864H168.88V15.9664C168.88 15.4864 168.787 15.1397 168.6 14.9264C168.413 14.6997 168.14 14.5864 167.78 14.5864C167.047 14.5864 166.68 15.033 166.68 15.9264C166.68 16.433 166.813 16.9064 167.08 17.3464C167.36 17.7864 167.86 18.3197 168.58 18.9464C169.5 19.7464 170.133 20.473 170.48 21.1264C170.827 21.7797 171 22.5464 171 23.4264C171 24.573 170.713 25.453 170.14 26.0664C169.58 26.6797 168.76 26.9864 167.68 26.9864ZM172.261 12.7864H178.261V14.7864H174.461V18.4864H177.481V20.4864H174.461V24.7864H178.261V26.7864H172.261V12.7864ZM181.247 14.7864H178.947V12.7864H185.747V14.7864H183.447V26.7864H181.247V14.7864ZM188.728 14.7864H186.428V12.7864H193.228V14.7864H190.928V26.7864H188.728V14.7864ZM194.293 12.7864H196.493V26.7864H194.293V12.7864ZM198.14 12.7864H200.9L203.04 21.1664H203.08V12.7864H205.04V26.7864H202.78L200.14 16.5664H200.1V26.7864H198.14V12.7864ZM209.795 26.9864C208.729 26.9864 207.915 26.6864 207.355 26.0864C206.795 25.473 206.515 24.5997 206.515 23.4664V16.1064C206.515 14.973 206.795 14.1064 207.355 13.5064C207.915 12.893 208.729 12.5864 209.795 12.5864C210.862 12.5864 211.675 12.893 212.235 13.5064C212.795 14.1064 213.075 14.973 213.075 16.1064V17.3064H210.995V15.9664C210.995 15.0464 210.615 14.5864 209.855 14.5864C209.095 14.5864 208.715 15.0464 208.715 15.9664V23.6264C208.715 24.533 209.095 24.9864 209.855 24.9864C210.615 24.9864 210.995 24.533 210.995 23.6264V20.8864H209.895V18.8864H213.075V23.4664C213.075 24.5997 212.795 25.473 212.235 26.0864C211.675 26.6864 210.862 26.9864 209.795 26.9864ZM217.348 26.9864C216.281 26.9864 215.475 26.6864 214.928 26.0864C214.381 25.473 214.108 24.5997 214.108 23.4664V22.6664H216.188V23.6264C216.188 24.533 216.568 24.9864 217.328 24.9864C217.701 24.9864 217.981 24.8797 218.168 24.6664C218.368 24.4397 218.468 24.0797 218.468 23.5864C218.468 22.9997 218.335 22.4864 218.068 22.0464C217.801 21.593 217.308 21.053 216.588 20.4264C215.681 19.6264 215.048 18.9064 214.688 18.2664C214.328 17.613 214.148 16.8797 214.148 16.0664C214.148 14.9597 214.428 14.1064 214.988 13.5064C215.548 12.893 216.361 12.5864 217.428 12.5864C218.481 12.5864 219.275 12.893 219.808 13.5064C220.355 14.1064 220.628 14.973 220.628 16.1064V16.6864H218.548V15.9664C218.548 15.4864 218.455 15.1397 218.268 14.9264C218.081 14.6997 217.808 14.5864 217.448 14.5864C216.715 14.5864 216.348 15.033 216.348 15.9264C216.348 16.433 216.481 16.9064 216.748 17.3464C217.028 17.7864 217.528 18.3197 218.248 18.9464C219.168 19.7464 219.801 20.473 220.148 21.1264C220.495 21.7797 220.668 22.5464 220.668 23.4264C220.668 24.573 220.381 25.453 219.808 26.0664C219.248 26.6797 218.428 26.9864 217.348 26.9864Z" fill="black"/>
<path d="M79.641 11.7151L80.8081 17.1117H84.5848L81.5294 20.447L82.6964 25.8437L79.641 22.5084L76.5856 25.8437L77.7527 20.447L74.6973 17.1117H78.474L79.641 11.7151Z" fill="#A1262E"/>
<path d="M309.009 11.7151L310.176 17.1117H313.953L310.898 20.447L312.065 25.8437L309.009 22.5084L305.954 25.8437L307.121 20.447L304.066 17.1117H307.842L309.009 11.7151Z" fill="#A1262E"/>
<defs>
<filter id="filter0_d_568_696" x="0" y="11.3352" width="388" height="319.211" filterUnits="userSpaceOnUse" color-interpolation-filters="sRGB">
<feFlood flood-opacity="0" result="BackgroundImageFix"/>
<feColorMatrix in="SourceAlpha" type="matrix" values="0 0 0 0 0 0 0 0 0 0 0 0 0 0 0 0 0 0 127 0" result="hardAlpha"/>
<feOffset dy="4"/>
<feGaussianBlur stdDeviation="10"/>
<feComposite in2="hardAlpha" operator="out"/>
<feColorMatrix type="matrix" values="0 0 0 0 0 0 0 0 0 0 0 0 0 0 0 0 0 0 0.25 0"/>
<feBlend mode="normal" in2="BackgroundImageFix" result="effect1_dropShadow_568_696"/>
<feBlend mode="normal" in="SourceGraphic" in2="effect1_dropShadow_568_696" result="shape"/>
</filter>
</defs>
</svg>
