<svg width="388" height="331" viewBox="0 0 388 331" fill="none" xmlns="http://www.w3.org/2000/svg">
<rect x="13" y="20.5015" width="362" height="308.499" rx="50" fill="#81141B"/>
<g filter="url(#filter0_d_568_696)">
<rect x="20" y="27.3352" width="348" height="279.211" rx="50" fill="#CAC1B0"/>
</g>
<path d="M53 0H335L319.69 20.0134L335 40.0267H53L68.31 20.0134L53 0Z" fill="#B5962B"/>
<path d="M329.312 4.40503L315.268 19.6746L314.957 20.0134L315.268 20.3523L329.313 35.6218H58.6875L72.7334 20.3523L73.0439 20.0134L72.7334 19.6746L58.6885 4.40503H329.312Z" stroke="#A1262E"/>
<path d="M162.68 27.2C161.613 27.2 160.807 26.9 160.26 26.3C159.713 25.6867 159.44 24.8133 159.44 23.68V22.88H161.52V23.84C161.52 24.7467 161.9 25.2 162.66 25.2C163.033 25.2 163.313 25.0933 163.5 24.88C163.7 24.6533 163.8 24.2933 163.8 23.8C163.8 23.2133 163.667 22.7 163.4 22.26C163.133 21.8067 162.64 21.2667 161.92 20.64C161.013 19.84 160.38 19.12 160.02 18.48C159.66 17.8267 159.48 17.0933 159.48 16.28C159.48 15.1733 159.76 14.32 160.32 13.72C160.88 13.1067 161.693 12.8 162.76 12.8C163.813 12.8 164.607 13.1067 165.14 13.72C165.687 14.32 165.96 15.1867 165.96 16.32V16.9H163.88V16.18C163.88 15.7 163.787 15.3533 163.6 15.14C163.413 14.9133 163.14 14.8 162.78 14.8C162.047 14.8 161.68 15.2467 161.68 16.14C161.68 16.6467 161.813 17.12 162.08 17.56C162.36 18 162.86 18.5333 163.58 19.16C164.5 19.96 165.133 20.6867 165.48 21.34C165.827 21.9933 166 22.76 166 23.64C166 24.7867 165.713 25.6667 165.14 26.28C164.58 26.8933 163.76 27.2 162.68 27.2ZM170.461 27.2C169.395 27.2 168.581 26.9 168.021 26.3C167.461 25.6867 167.181 24.8133 167.181 23.68V13H169.381V23.84C169.381 24.32 169.475 24.6667 169.661 24.88C169.861 25.0933 170.141 25.2 170.501 25.2C170.861 25.2 171.135 25.0933 171.321 24.88C171.521 24.6667 171.621 24.32 171.621 23.84V13H173.741V23.68C173.741 24.8133 173.461 25.6867 172.901 26.3C172.341 26.9 171.528 27.2 170.461 27.2ZM175.308 13H178.568C179.702 13 180.528 13.2667 181.048 13.8C181.568 14.32 181.828 15.1267 181.828 16.22V17.08C181.828 18.5333 181.348 19.4533 180.388 19.84V19.88C180.922 20.04 181.295 20.3667 181.508 20.86C181.735 21.3533 181.848 22.0133 181.848 22.84V25.3C181.848 25.7 181.862 26.0267 181.888 26.28C181.915 26.52 181.982 26.76 182.088 27H179.848C179.768 26.7733 179.715 26.56 179.688 26.36C179.662 26.16 179.648 25.8 179.648 25.28V22.72C179.648 22.08 179.542 21.6333 179.328 21.38C179.128 21.1267 178.775 21 178.268 21H177.508V27H175.308V13ZM178.308 19C178.748 19 179.075 18.8867 179.288 18.66C179.515 18.4333 179.628 18.0533 179.628 17.52V16.44C179.628 15.9333 179.535 15.5667 179.348 15.34C179.175 15.1133 178.895 15 178.508 15H177.508V19H178.308ZM183.375 13H186.635C187.768 13 188.595 13.2667 189.115 13.8C189.635 14.32 189.895 15.1267 189.895 16.22V17.08C189.895 18.5333 189.415 19.4533 188.455 19.84V19.88C188.988 20.04 189.361 20.3667 189.575 20.86C189.801 21.3533 189.915 22.0133 189.915 22.84V25.3C189.915 25.7 189.928 26.0267 189.955 26.28C189.981 26.52 190.048 26.76 190.155 27H187.915C187.835 26.7733 187.781 26.56 187.755 26.36C187.728 26.16 187.715 25.8 187.715 25.28V22.72C187.715 22.08 187.608 21.6333 187.395 21.38C187.195 21.1267 186.841 21 186.335 21H185.575V27H183.375V13ZM186.375 19C186.815 19 187.141 18.8867 187.355 18.66C187.581 18.4333 187.695 18.0533 187.695 17.52V16.44C187.695 15.9333 187.601 15.5667 187.415 15.34C187.241 15.1133 186.961 15 186.575 15H185.575V19H186.375ZM191.441 13H197.441V15H193.641V18.7H196.661V20.7H193.641V25H197.441V27H191.441V13ZM198.707 13H201.467L203.607 21.38H203.647V13H205.607V27H203.347L200.707 16.78H200.667V27H198.707V13ZM207.242 13H210.602C211.695 13 212.515 13.2933 213.062 13.88C213.609 14.4667 213.882 15.3267 213.882 16.46V23.54C213.882 24.6733 213.609 25.5333 213.062 26.12C212.515 26.7067 211.695 27 210.602 27H207.242V13ZM210.562 25C210.922 25 211.195 24.8933 211.382 24.68C211.582 24.4667 211.682 24.12 211.682 23.64V16.36C211.682 15.88 211.582 15.5333 211.382 15.32C211.195 15.1067 210.922 15 210.562 15H209.442V25H210.562ZM215.367 13H221.367V15H217.567V18.7H220.587V20.7H217.567V25H221.367V27H215.367V13ZM222.633 13H225.893C227.026 13 227.853 13.2667 228.373 13.8C228.893 14.32 229.153 15.1267 229.153 16.22V17.08C229.153 18.5333 228.673 19.4533 227.713 19.84V19.88C228.246 20.04 228.619 20.3667 228.833 20.86C229.059 21.3533 229.173 22.0133 229.173 22.84V25.3C229.173 25.7 229.186 26.0267 229.213 26.28C229.239 26.52 229.306 26.76 229.413 27H227.173C227.093 26.7733 227.039 26.56 227.013 26.36C226.986 26.16 226.973 25.8 226.973 25.28V22.72C226.973 22.08 226.866 21.6333 226.653 21.38C226.453 21.1267 226.099 21 225.593 21H224.833V27H222.633V13ZM225.633 19C226.073 19 226.399 18.8867 226.613 18.66C226.839 18.4333 226.952 18.0533 226.952 17.52V16.44C226.952 15.9333 226.859 15.5667 226.673 15.34C226.499 15.1133 226.219 15 225.833 15H224.833V19H225.633Z" fill="black"/>
<path d="M79.641 11.7151L80.8081 17.1117H84.5848L81.5294 20.447L82.6964 25.8437L79.641 22.5084L76.5856 25.8437L77.7527 20.447L74.6973 17.1117H78.474L79.641 11.7151Z" fill="#A1262E"/>
<path d="M309.009 11.7151L310.176 17.1117H313.953L310.898 20.447L312.065 25.8437L309.009 22.5084L305.954 25.8437L307.121 20.447L304.066 17.1117H307.842L309.009 11.7151Z" fill="#A1262E"/>
<defs>
<filter id="filter0_d_568_696" x="0" y="11.3352" width="388" height="319.211" filterUnits="userSpaceOnUse" color-interpolation-filters="sRGB">
<feFlood flood-opacity="0" result="BackgroundImageFix"/>
<feColorMatrix in="SourceAlpha" type="matrix" values="0 0 0 0 0 0 0 0 0 0 0 0 0 0 0 0 0 0 127 0" result="hardAlpha"/>
<feOffset dy="4"/>
<feGaussianBlur stdDeviation="10"/>
<feComposite in2="hardAlpha" operator="out"/>
<feColorMatrix type="matrix" values="0 0 0 0 0 0 0 0 0 0 0 0 0 0 0 0 0 0 0.25 0"/>
<feBlend mode="normal" in2="BackgroundImageFix" result="effect1_dropShadow_568_696"/>
<feBlend mode="normal" in="SourceGraphic" in2="effect1_dropShadow_568_696" result="shape"/>
</filter>
</defs>
</svg>
