<svg width="388" height="331" viewBox="0 0 388 331" fill="none" xmlns="http://www.w3.org/2000/svg">
<rect x="13" y="20.5015" width="362" height="308.499" rx="50" fill="#81141B"/>
<g filter="url(#filter0_d_568_696)">
<rect x="20" y="27.3352" width="348" height="279.211" rx="50" fill="#CAC1B0"/>
</g>
<path d="M53 0H335L319.69 20.0134L335 40.0267H53L68.31 20.0134L53 0Z" fill="#B5962B"/>
<path d="M329.312 4.40503L315.268 19.6746L314.957 20.0134L315.268 20.3523L329.313 35.6218H58.6875L72.7334 20.3523L73.0439 20.0134L72.7334 19.6746L58.6885 4.40503H329.312Z" stroke="#A1262E"/>
<path d="M175.084 13H181.084V15H177.284V18.7H180.304V20.7H177.284V25H181.084V27H175.084V13ZM182.349 13H185.609C186.743 13 187.569 13.2667 188.089 13.8C188.609 14.32 188.869 15.1267 188.869 16.22V17.08C188.869 18.5333 188.389 19.4533 187.429 19.84V19.88C187.963 20.04 188.336 20.3667 188.549 20.86C188.776 21.3533 188.889 22.0133 188.889 22.84V25.3C188.889 25.7 188.903 26.0267 188.929 26.28C188.956 26.52 189.023 26.76 189.129 27H186.889C186.809 26.7733 186.756 26.56 186.729 26.36C186.703 26.16 186.689 25.8 186.689 25.28V22.72C186.689 22.08 186.583 21.6333 186.369 21.38C186.169 21.1267 185.816 21 185.309 21H184.549V27H182.349V13ZM185.349 19C185.789 19 186.116 18.8867 186.329 18.66C186.556 18.4333 186.669 18.0533 186.669 17.52V16.44C186.669 15.9333 186.576 15.5667 186.389 15.34C186.216 15.1133 185.936 15 185.549 15H184.549V19H185.349ZM190.416 13H193.676C194.809 13 195.636 13.2667 196.156 13.8C196.676 14.32 196.936 15.1267 196.936 16.22V17.08C196.936 18.5333 196.456 19.4533 195.496 19.84V19.88C196.029 20.04 196.402 20.3667 196.616 20.86C196.842 21.3533 196.956 22.0133 196.956 22.84V25.3C196.956 25.7 196.969 26.0267 196.996 26.28C197.022 26.52 197.089 26.76 197.196 27H194.956C194.876 26.7733 194.822 26.56 194.796 26.36C194.769 26.16 194.756 25.8 194.756 25.28V22.72C194.756 22.08 194.649 21.6333 194.436 21.38C194.236 21.1267 193.882 21 193.376 21H192.616V27H190.416V13ZM193.416 19C193.856 19 194.182 18.8867 194.396 18.66C194.622 18.4333 194.736 18.0533 194.736 17.52V16.44C194.736 15.9333 194.642 15.5667 194.456 15.34C194.282 15.1133 194.002 15 193.616 15H192.616V19H193.416ZM201.662 27.2C200.582 27.2 199.755 26.8933 199.182 26.28C198.609 25.6667 198.322 24.8 198.322 23.68V16.32C198.322 15.2 198.609 14.3333 199.182 13.72C199.755 13.1067 200.582 12.8 201.662 12.8C202.742 12.8 203.569 13.1067 204.142 13.72C204.715 14.3333 205.002 15.2 205.002 16.32V23.68C205.002 24.8 204.715 25.6667 204.142 26.28C203.569 26.8933 202.742 27.2 201.662 27.2ZM201.662 25.2C202.422 25.2 202.802 24.74 202.802 23.82V16.18C202.802 15.26 202.422 14.8 201.662 14.8C200.902 14.8 200.522 15.26 200.522 16.18V23.82C200.522 24.74 200.902 25.2 201.662 25.2ZM206.49 13H209.75C210.883 13 211.71 13.2667 212.23 13.8C212.75 14.32 213.01 15.1267 213.01 16.22V17.08C213.01 18.5333 212.53 19.4533 211.57 19.84V19.88C212.103 20.04 212.477 20.3667 212.69 20.86C212.917 21.3533 213.03 22.0133 213.03 22.84V25.3C213.03 25.7 213.043 26.0267 213.07 26.28C213.097 26.52 213.163 26.76 213.27 27H211.03C210.95 26.7733 210.897 26.56 210.87 26.36C210.843 26.16 210.83 25.8 210.83 25.28V22.72C210.83 22.08 210.723 21.6333 210.51 21.38C210.31 21.1267 209.957 21 209.45 21H208.69V27H206.49V13ZM209.49 19C209.93 19 210.257 18.8867 210.47 18.66C210.697 18.4333 210.81 18.0533 210.81 17.52V16.44C210.81 15.9333 210.717 15.5667 210.53 15.34C210.357 15.1133 210.077 15 209.69 15H208.69V19H209.49Z" fill="black"/>
<path d="M79.641 11.7151L80.8081 17.1117H84.5848L81.5294 20.447L82.6964 25.8437L79.641 22.5084L76.5856 25.8437L77.7527 20.447L74.6973 17.1117H78.474L79.641 11.7151Z" fill="#A1262E"/>
<path d="M309.009 11.7151L310.176 17.1117H313.953L310.898 20.447L312.065 25.8437L309.009 22.5084L305.954 25.8437L307.121 20.447L304.066 17.1117H307.842L309.009 11.7151Z" fill="#A1262E"/>
<defs>
<filter id="filter0_d_568_696" x="0" y="11.3352" width="388" height="319.211" filterUnits="userSpaceOnUse" color-interpolation-filters="sRGB">
<feFlood flood-opacity="0" result="BackgroundImageFix"/>
<feColorMatrix in="SourceAlpha" type="matrix" values="0 0 0 0 0 0 0 0 0 0 0 0 0 0 0 0 0 0 127 0" result="hardAlpha"/>
<feOffset dy="4"/>
<feGaussianBlur stdDeviation="10"/>
<feComposite in2="hardAlpha" operator="out"/>
<feColorMatrix type="matrix" values="0 0 0 0 0 0 0 0 0 0 0 0 0 0 0 0 0 0 0.25 0"/>
<feBlend mode="normal" in2="BackgroundImageFix" result="effect1_dropShadow_568_696"/>
<feBlend mode="normal" in="SourceGraphic" in2="effect1_dropShadow_568_696" result="shape"/>
</filter>
</defs>
</svg>