<svg width="1097" height="545" viewBox="0 0 1097 545" fill="none" xmlns="http://www.w3.org/2000/svg">
<g filter="url(#filter0_d_86_253)">
<rect x="40" y="30" width="1037" height="485" rx="242.5" fill="url(#paint0_linear_86_253)"/>
</g>
<rect x="92" y="52" width="933" height="441" rx="218.5" fill="url(#paint1_linear_86_253)"/>
<g filter="url(#filter1_i_86_253)">
<rect x="103" y="66" width="912" height="416" rx="208" fill="url(#paint2_linear_86_253)"/>
</g>
<rect x="153" y="103" width="809" height="342" rx="171" stroke="#780008" stroke-width="2"/>
<path d="M495.976 358.416V343.888H493.48C492.989 343.888 492.744 344.219 492.744 344.88V346.384L489.48 346.16V340.72H506.216V346.16L502.952 346.384V344.88C502.952 344.517 502.899 344.261 502.792 344.112C502.685 343.963 502.429 343.888 502.024 343.888H499.848V359.184L502.376 359.28V362H493.352V359.408L495.048 359.312C495.667 359.248 495.976 358.949 495.976 358.416ZM509.696 358.256V343.536L507.872 343.44V340.72H515.552V343.312L514.496 343.408C513.877 343.472 513.568 343.813 513.568 344.432V351.472L520.096 343.536L518.304 343.44V340.72H525.792V343.312L524.736 343.408C524.33 343.451 523.904 343.749 523.456 344.304L518.912 349.872L524.576 359.184L526.272 359.28V362H518.08V359.408L519.072 359.312C519.498 359.269 519.712 359.099 519.712 358.8C519.712 358.672 519.658 358.501 519.552 358.288L516.384 352.816L513.568 356.208V359.184L515.392 359.28V362H507.712V359.408L508.768 359.312C509.088 359.269 509.322 359.184 509.472 359.056C509.621 358.907 509.696 358.64 509.696 358.256ZM533.96 354.256V351.312H542.344V354.256H533.96ZM550.807 362V359.408L551.863 359.312C552.481 359.248 552.791 358.949 552.791 358.416V343.536L550.967 343.44V340.72H559.735C562.871 340.72 565.313 341.552 567.063 343.216C568.833 344.88 569.719 347.344 569.719 350.608C569.719 352.635 569.452 354.405 568.919 355.92C568.385 357.413 567.66 358.587 566.743 359.44C564.908 361.147 562.625 362 559.895 362H550.807ZM556.695 343.824V358.928H559.959C561.793 358.928 563.223 358.267 564.247 356.944C565.271 355.621 565.783 353.701 565.783 351.184C565.783 346.277 563.703 343.824 559.543 343.824H556.695ZM577.432 344.464V355.088C577.432 356.581 577.784 357.637 578.488 358.256C579.213 358.853 580.237 359.152 581.56 359.152C582.904 359.152 583.939 358.821 584.664 358.16C585.411 357.499 585.784 356.528 585.784 355.248V343.536L583.928 343.44V340.72H591.512V343.312L590.456 343.408C589.837 343.472 589.528 343.792 589.528 344.368V355.792C589.528 357.861 588.803 359.483 587.352 360.656C585.901 361.829 583.896 362.416 581.336 362.416C578.776 362.416 576.835 361.851 575.512 360.72C574.211 359.568 573.56 357.755 573.56 355.28V343.536L571.704 343.44V340.72H579.448V343.312L578.392 343.408C578.051 343.451 577.805 343.547 577.656 343.696C577.507 343.824 577.432 344.08 577.432 344.464ZM602.821 340.336C605.36 340.336 607.483 341.232 609.189 343.024C610.896 344.816 611.749 347.557 611.749 351.248C611.749 354.917 610.896 357.701 609.189 359.6C607.504 361.477 605.211 362.416 602.309 362.416C599.429 362.416 597.168 361.477 595.525 359.6C593.883 357.723 593.061 354.992 593.061 351.408C593.061 349.445 593.349 347.728 593.925 346.256C594.501 344.763 595.259 343.611 596.197 342.8C598.096 341.157 600.304 340.336 602.821 340.336ZM597.061 351.248C597.061 356.539 598.896 359.184 602.565 359.184C604.528 359.184 605.904 358.373 606.693 356.752C607.419 355.323 607.781 353.573 607.781 351.504C607.781 349.648 607.461 347.941 606.821 346.384C606.459 345.531 605.904 344.859 605.157 344.368C604.432 343.877 603.483 343.632 602.309 343.632C601.136 343.632 600.123 344.016 599.269 344.784C598.437 345.552 597.861 346.48 597.541 347.568C597.221 348.656 597.061 349.883 597.061 351.248ZM620.462 362V359.408L621.518 359.312C622.136 359.248 622.446 358.949 622.446 358.416V343.536L620.622 343.44V340.72H629.774C632.163 340.72 634.019 341.285 635.342 342.416C636.686 343.525 637.358 345.2 637.358 347.44C637.358 349.68 636.6 351.429 635.086 352.688C633.571 353.925 631.566 354.544 629.07 354.544H626.35V359.184L629.422 359.28V362H620.462ZM626.35 351.44H628.654C631.768 351.44 633.326 350.171 633.326 347.632C633.326 346.096 632.92 345.083 632.11 344.592C631.32 344.08 630.051 343.824 628.302 343.824H626.35V351.44ZM637.926 358.416L643.078 343.504L641.062 343.312V340.72H648.39L654.918 359.184H654.95L656.774 359.28V362H648.518V359.408L649.734 359.312C650.097 359.269 650.342 359.184 650.47 359.056C650.598 358.928 650.609 358.693 650.502 358.352L649.83 356.368H642.342L641.382 359.184L643.302 359.28V362H635.91V359.408L636.966 359.312C637.414 359.269 637.734 358.971 637.926 358.416ZM646.086 344.304L643.11 353.424H649.062L646.182 344.304H646.086ZM661.664 358.416V343.888H659.168C658.677 343.888 658.432 344.219 658.432 344.88V346.384L655.168 346.16V340.72H671.904V346.16L668.64 346.384V344.88C668.64 344.517 668.586 344.261 668.48 344.112C668.373 343.963 668.117 343.888 667.712 343.888H665.536V359.184L668.064 359.28V362H659.04V359.408L660.736 359.312C661.354 359.248 661.664 358.949 661.664 358.416Z" fill="#A1262E"/>
<g clip-path="url(#clip0_86_253)">
<path fill-rule="evenodd" clip-rule="evenodd" d="M457.982 361.903L453.978 365.771C451.75 367.925 449.934 369.759 449.934 369.879C449.934 369.998 453.607 370.038 458.065 369.959L466.196 369.839L457.982 361.903ZM457.941 365.093L455.134 367.885H457.899C459.427 367.885 460.665 367.845 460.665 367.765C460.665 367.685 460.046 367.087 459.303 366.369L457.941 365.093Z" fill="#81141B"/>
<path d="M457.982 345.951L453.442 350.338C449.108 354.525 448.365 355.044 447.746 354.446C446.962 353.728 447.87 352.492 452.74 347.826L457.982 342.761L463.513 348.105C468.301 352.731 469.002 353.568 468.548 354.087C468.218 354.446 467.764 354.725 467.516 354.725C467.269 354.725 464.999 352.731 462.522 350.338L457.982 345.951Z" fill="#81141B"/>
<path fill-rule="evenodd" clip-rule="evenodd" d="M450.883 358.673C451.378 358.434 453.194 356.918 454.886 355.283L457.982 352.332L460.871 355.163C464.173 358.394 465.37 359.111 467.475 359.111C471.148 359.111 473.914 355.921 473.253 352.412C473.006 351.176 471.726 349.74 465.494 343.639L457.982 336.381L451.048 343.04C447.209 346.749 443.825 350.219 443.495 350.817C442.752 352.212 442.752 354.844 443.536 356.36C444.816 358.673 448.489 359.829 450.883 358.673ZM445.187 352.731C444.816 354.326 445.641 355.881 447.086 356.479C447.787 356.759 448.778 356.918 449.273 356.838C449.81 356.719 451.956 354.964 454.102 352.89L457.941 349.142L461.944 352.93C465.7 356.519 466.361 356.918 468.301 356.759C469.539 356.639 470.983 354.884 470.983 353.449C470.983 352.372 470.075 351.335 464.503 345.872L458.023 339.571L451.708 345.632C447.829 349.341 445.311 352.093 445.187 352.731Z" fill="#81141B"/>
<path fill-rule="evenodd" clip-rule="evenodd" d="M452.947 362.701C453.937 362.262 455.464 361.185 456.331 360.308L457.899 358.753L459.716 360.348C460.706 361.225 462.316 362.302 463.265 362.74C465.329 363.618 469.58 363.737 471.561 362.94C475.235 361.464 478 357.437 478 353.528C478 349.62 476.968 348.264 466.98 338.654L457.941 330L448.613 339.052C439.945 347.507 439.243 348.304 438.624 350.298C437.799 352.97 437.799 354.047 438.583 356.559C439.863 360.747 443.825 363.498 448.571 363.498C450.346 363.498 451.75 363.219 452.947 362.701ZM446.012 361.026C441.39 359.47 439.161 354.326 441.266 350.179C441.761 349.182 445.27 345.433 450.057 340.847L458.023 333.19L466.526 341.445C474.45 349.222 475.028 349.86 475.441 351.694C476.349 355.881 473.831 360.029 469.704 361.105C466.361 361.983 463.637 361.026 460.252 357.716L458.023 355.522L455.299 358.075C451.832 361.305 449.273 362.142 446.012 361.026Z" fill="#81141B"/>
</g>
<defs>
<filter id="filter0_d_86_253" x="0" y="0" width="1097" height="545" filterUnits="userSpaceOnUse" color-interpolation-filters="sRGB">
<feFlood flood-opacity="0" result="BackgroundImageFix"/>
<feColorMatrix in="SourceAlpha" type="matrix" values="0 0 0 0 0 0 0 0 0 0 0 0 0 0 0 0 0 0 127 0" result="hardAlpha"/>
<feOffset dx="-10"/>
<feGaussianBlur stdDeviation="15"/>
<feColorMatrix type="matrix" values="0 0 0 0 0 0 0 0 0 0 0 0 0 0 0 0 0 0 0.1 0"/>
<feBlend mode="normal" in2="BackgroundImageFix" result="effect1_dropShadow_86_253"/>
<feBlend mode="normal" in="SourceGraphic" in2="effect1_dropShadow_86_253" result="shape"/>
</filter>
<filter id="filter1_i_86_253" x="103" y="61" width="917" height="421" filterUnits="userSpaceOnUse" color-interpolation-filters="sRGB">
<feFlood flood-opacity="0" result="BackgroundImageFix"/>
<feBlend mode="normal" in="SourceGraphic" in2="BackgroundImageFix" result="shape"/>
<feColorMatrix in="SourceAlpha" type="matrix" values="0 0 0 0 0 0 0 0 0 0 0 0 0 0 0 0 0 0 127 0" result="hardAlpha"/>
<feOffset dx="5" dy="-5"/>
<feGaussianBlur stdDeviation="5"/>
<feComposite in2="hardAlpha" operator="arithmetic" k2="-1" k3="1"/>
<feColorMatrix type="matrix" values="0 0 0 0 0 0 0 0 0 0 0 0 0 0 0 0 0 0 0.3 0"/>
<feBlend mode="normal" in2="shape" result="effect1_innerShadow_86_253"/>
</filter>
<linearGradient id="paint0_linear_86_253" x1="929.227" y1="158.525" x2="310.527" y2="397.907" gradientUnits="userSpaceOnUse">
<stop stop-color="#AD1E27"/>
<stop offset="1" stop-color="#81141B"/>
</linearGradient>
<linearGradient id="paint1_linear_86_253" x1="-21.5" y1="501.5" x2="1158.5" y2="-13.9999" gradientUnits="userSpaceOnUse">
<stop stop-color="#B59162"/>
<stop offset="1" stop-color="#5B2D1D"/>
</linearGradient>
<linearGradient id="paint2_linear_86_253" x1="67.5" y1="482" x2="1026.5" y2="32.4999" gradientUnits="userSpaceOnUse">
<stop stop-color="#DCC291"/>
<stop offset="1" stop-color="#B59162"/>
</linearGradient>
<clipPath id="clip0_86_253">
<rect width="40" height="40" fill="white" transform="translate(438 330)"/>
</clipPath>
</defs>
</svg>
